<svg width="29" height="29" viewBox="0 0 29 29" fill="none" xmlns="http://www.w3.org/2000/svg">
<path d="M22.0679 3.30475C22.4333 3.30478 22.7602 3.63173 22.7603 3.99713V6.85846H24.1411C25.3348 6.85846 26.3149 7.83863 26.3149 9.03229V22.6573C26.3149 23.8509 25.3348 24.8311 24.1411 24.8311H3.99951C2.80594 24.831 1.82666 23.8509 1.82666 22.6573V5.77448C1.82666 4.41672 2.93863 3.30475 4.29639 3.30475H22.0679ZM3.21143 22.6573C3.21143 23.1045 3.55229 23.4463 3.99951 23.4464H24.1411C24.5884 23.4464 24.9302 23.1046 24.9302 22.6573V19.2032H16.4399C15.5746 19.203 14.8589 18.4875 14.8589 17.6221V14.0674C14.859 13.2022 15.5747 12.4866 16.4399 12.4864H24.9302V9.03229C24.9302 8.58498 24.5884 8.24323 24.1411 8.24323C18.4068 8.24322 10.9678 8.2373 4.29639 8.24323C3.90742 8.24323 3.53895 8.14879 3.21143 7.98639V22.6573ZM16.4399 13.8712C16.3769 13.8711 16.3291 13.8931 16.2974 13.9249C16.2657 13.9566 16.2437 14.0044 16.2437 14.0674V17.6221C16.2437 17.6853 16.2657 17.733 16.2974 17.7647C16.329 17.7964 16.3768 17.8183 16.4399 17.8184H24.9302V13.8712H16.4399ZM19.4019 14.5596C20.1114 14.5596 20.6869 15.1353 20.687 15.8448C20.687 16.5544 20.1114 17.1299 19.4019 17.1299C18.6925 17.1297 18.1177 16.5542 18.1177 15.8448C18.1177 15.1354 18.6925 14.5599 19.4019 14.5596ZM4.29639 4.68951C3.68498 4.68951 3.21143 5.16307 3.21143 5.77448C3.21168 6.38565 3.68514 6.85846 4.29639 6.85846H21.3755V4.68951H4.29639Z" fill="#A7A8AB" stroke="#A7A8AB" stroke-width="0.2"/>
</svg>
