<svg width="29" height="29" viewBox="0 0 29 29" fill="none" xmlns="http://www.w3.org/2000/svg">
<path d="M24.8155 18.6399C24.0732 20.3952 22.9124 21.9418 21.4343 23.1448C19.9563 24.3477 18.206 25.1703 16.3366 25.5405C14.4672 25.9108 12.5356 25.8174 10.7106 25.2687C8.88564 24.72 7.22285 23.7325 5.86765 22.3927C4.51244 21.0529 3.50607 19.4015 2.93653 17.5829C2.36699 15.7643 2.25161 13.8338 2.60049 11.9603C2.94936 10.0868 3.75187 8.32732 4.93784 6.83563C6.12382 5.34393 7.65715 4.16546 9.40379 3.40326" stroke="#A7A8AB" stroke-width="2" stroke-linecap="round" stroke-linejoin="round"/>
<path d="M25.7372 14.1015C25.7372 12.5695 25.4355 11.0524 24.8492 9.6369C24.2628 8.22144 23.4035 6.93531 22.3201 5.85196C21.2368 4.76861 19.9507 3.90925 18.5352 3.32295C17.1197 2.73664 15.6026 2.43488 14.0706 2.43488V14.1015H25.7372Z" stroke="#A7A8AB" stroke-width="2" stroke-linecap="round" stroke-linejoin="round"/>
</svg>
